<?xml version="1.0" encoding="UTF-8" standalone="no"?>
<!-- Creator: CorelDRAW X6 -->

<svg
   xmlns:dc="http://purl.org/dc/elements/1.1/"
   xmlns:cc="http://creativecommons.org/ns#"
   xmlns:rdf="http://www.w3.org/1999/02/22-rdf-syntax-ns#"
   xmlns:svg="http://www.w3.org/2000/svg"
   xmlns="http://www.w3.org/2000/svg"
   xmlns:xlink="http://www.w3.org/1999/xlink"
   xmlns:sodipodi="http://sodipodi.sourceforge.net/DTD/sodipodi-0.dtd"
   xmlns:inkscape="http://www.inkscape.org/namespaces/inkscape"
   xml:space="preserve"
   width="72mm"
   height="43mm"
   version="1.1"
   style="clip-rule:evenodd;fill-rule:evenodd;image-rendering:optimizeQuality;shape-rendering:geometricPrecision;text-rendering:geometricPrecision"
   viewBox="0 0 2834.6456 1692.9132"
   id="svg46"
   sodipodi:docname="4k-uhd2.svg"
   inkscape:version="0.92.4 (5da689c313, 2019-01-14)"><metadata
   id="metadata50"><rdf:RDF><cc:Work
       rdf:about=""><dc:format>image/svg+xml</dc:format><dc:type
         rdf:resource="http://purl.org/dc/dcmitype/StillImage" /><dc:title></dc:title></cc:Work></rdf:RDF></metadata><sodipodi:namedview
   pagecolor="#ffffff"
   bordercolor="#666666"
   borderopacity="1"
   objecttolerance="10"
   gridtolerance="10"
   guidetolerance="10"
   inkscape:pageopacity="0"
   inkscape:pageshadow="2"
   inkscape:window-width="1920"
   inkscape:window-height="1017"
   id="namedview48"
   showgrid="false"
   units="mm"
   width="73mm"
   inkscape:zoom="0.22348485"
   inkscape:cx="-70.779661"
   inkscape:cy="528"
   inkscape:window-x="2936"
   inkscape:window-y="-8"
   inkscape:window-maximized="1"
   inkscape:current-layer="Layer_x0020_1" />
 <defs
   id="defs20">
  <style
   type="text/css"
   id="style2">
   <![CDATA[
    .fil4 {fill:black}
    .fil2 {fill:url(#id0)}
    .fil1 {fill:url(#id1)}
    .fil3 {fill:url(#id2)}
    .fil0 {fill:url(#id3)}
   ]]>
  </style>
  <linearGradient
   id="id0"
   gradientUnits="userSpaceOnUse"
   x1="5511.1699"
   y1="5190.0698"
   x2="4312.9902"
   y2="5265.2202">
   <stop
   offset="0"
   style="stop-color:#6A4F03"
   id="stop4" />
   <stop
   offset="0.501961"
   style="stop-color:#87781D"
   id="stop6" />
   <stop
   offset="1"
   style="stop-color:#D3CC45"
   id="stop8" />
  </linearGradient>
  <linearGradient
   id="id1"
   gradientUnits="userSpaceOnUse"
   x1="3719.8701"
   y1="5603.3701"
   x2="3554.28"
   y2="4851.9102">
   <stop
   offset="0"
   style="stop-color:#9D7304"
   id="stop11" />
   <stop
   offset="0.501961"
   style="stop-color:#F7C208"
   id="stop13" />
   <stop
   offset="1"
   style="stop-color:#F6E986"
   id="stop15" />
  </linearGradient>
  <linearGradient
   id="id2"
   gradientUnits="userSpaceOnUse"
   xlink:href="#id1"
   x1="5066.2598"
   y1="5619.1299"
   x2="4764"
   y2="4836.1401"
   gradientTransform="translate(-2796.6103,4698.0254)">
  </linearGradient>
  <linearGradient
   id="id3"
   gradientUnits="userSpaceOnUse"
   xlink:href="#id0"
   x1="3770.74"
   y1="5621.77"
   x2="3503.4099"
   y2="4833.5098"
   gradientTransform="translate(-2796.6103,4698.0254)">
  </linearGradient>
 <linearGradient
   inkscape:collect="always"
   xlink:href="#id1"
   id="linearGradient3762"
   gradientUnits="userSpaceOnUse"
   x1="3719.8701"
   y1="5603.3701"
   x2="3554.28"
   y2="4851.9102"
   gradientTransform="translate(-2796.6103,4698.0254)" /><linearGradient
   inkscape:collect="always"
   xlink:href="#id0"
   id="linearGradient3764"
   gradientUnits="userSpaceOnUse"
   x1="5511.1699"
   y1="5190.0698"
   x2="4312.9902"
   y2="5265.2202"
   gradientTransform="translate(-2796.6103,4698.0254)" /></defs>
 <g
   id="Layer_x0020_1"
   transform="translate(0,-9307.0869)">
  <metadata
   id="CorelCorpID_0Corel-Layer" />
  <path
   class="fil0"
   d="m 1332.3897,10032.025 h 124 c 11,0 20,9 20,20 v 111 c 0,11 -9,20 -20,20 h -124 v 91.001 c 0,16 -13,28 -28,28 h -240 c -16,0 -28,-13 -28,-28 v -91.001 H 348.38978 c -51,0 -122,-15 -141,-69 -3,-8 -4,-17 -4,-25 0,-38 27,-69 57,-88 l 639,-433.9996 c 22,-15 33,-19 58.99995,-19 h 345.99997 c 16,0 28,13 28,28 z m -297,-311.9996 c -5,-1 -20,8 -24,11 l -375.99992,255 c -9,6 -20,18.9996 -16,30.9996 4,12 21,15 32,15 h 384.99992 v -306.9996 c 0,-1 0,-4 -1,-5 z"
   id="path23"
   inkscape:connector-curvature="0"
   style="fill:url(#id3)" />
  <path
   class="fil1"
   d="M 1304.3897,9559.0254 H 958.38973 c -23.99995,0 -31.99995,3 -52.99995,17 l -639,433.9996 c -37,23 -53,54 -53,79 0,49 50,84 135,84 h 697.99992 v 102.001 c 0,10 8,18 18,18 h 240 c 10,0 18,-8 18,-18 v -102.001 h 135 c 5,0 10,-4 10,-10 v -111 c 0,-5 -4,-10 -10,-10 h -135 v -466.9996 c 0,-10 -8,-18 -18,-18 z m -257,167 v 317.9996 H 651.38978 c -51,0 -55,-43 -21,-65.9996 l 375.99992,-255 c 17,-11 42,-23 42,3 z"
   id="path25"
   inkscape:connector-curvature="0"
   style="fill:url(#linearGradient3762)" />
  <path
   class="fil2"
   d="m 1822.3897,9819.0254 453,-251 c 30,-17 39,-21 74,-21 h 259 c 13,0 31,3 35,18 3,14 -10,24 -21,30 l -541,289 605,372.0006 c 9,6 19,16 17,28 -3,16 -24,20 -37,20 h -302 c -34,0 -43,-4 -70,-21 l -471,-302.0006 v 295.0006 c 0,16 -13,28 -28,28 h -240 c -16,0 -28,-13 -28,-28 v -699.0006 c 0,-16 13,-28 28,-28 h 240 c 16,0 28,13 28,28 v 243 z"
   id="path27"
   inkscape:connector-curvature="0"
   style="fill:url(#linearGradient3764)" />
  <path
   class="fil3"
   d="m 1793.3897,9559.0254 h -240 c -10,0 -18,8 -18,18 v 699.0006 c 0,10 8,18 18,18 h 240 c 10,0 18,-8 18,-18 v -315.0006 l 488,312.0006 c 24,16 31,20 65,20 h 302 c 30,0 35,-15 15,-27 l -621,-382.0006 557,-297 c 23,-12 21,-27 -9,-27 h -259 c -34,0 -41,4 -69,20 l -469,259 v -261 c 0,-10 -8,-18 -18,-18 z"
   id="path29"
   inkscape:connector-curvature="0"
   style="fill:url(#id2)" />
  <polygon
   class="fil4"
   points="4862,5900 4987,5900 4987,5755 5088,5755 5088,6142 4987,6142 4987,5989 4862,5989 4862,6142 4762,6142 4762,5755 4862,5755 "
   id="polygon31"
   style="fill:#000000"
   transform="translate(-2796.6103,4698.0253)" />
  <path
   class="fil4"
   d="m 2356.3897,10453.026 h 157 c 86,0 179,60 179,194 0,138 -96,194 -183,194 h -154 v -387 z m 100,88 v 211 h 34 c 51,0 100,-17 100,-104 0,-80 -43,-107 -93,-107 z"
   id="path33"
   inkscape:connector-curvature="0"
   style="fill:#000000" />
  <path
   class="fil4"
   d="m 1555.3897,10453.026 h 89 l 148,387 h -111 l -18,-55 h -133 l -17,55 h -110 l 153,-387 z m 82,252 -42,-129 -40,129 z"
   id="path35"
   inkscape:connector-curvature="0"
   style="fill:#000000" />
  <polygon
   class="fil4"
   points="3466,6054 3580,6054 3580,6142 3366,6142 3366,5755 3466,5755 "
   id="polygon37"
   style="fill:#000000"
   transform="translate(-2796.6103,4698.0253)" />
  <path
   class="fil4"
   d="m 1068.3897,10453.026 h 165 c 76,0 131,56 131,127 0,53 -22,100 -70,120 l 80,141 h -105 l -100,-186 v -2 h 43 c 31,0 56,-25 56,-56 0,-31 -25,-56 -56,-56 h -43 v 299 h -100 v -387 z"
   id="path39"
   inkscape:connector-curvature="0"
   style="fill:#000000" />
  <polygon
   class="fil4"
   points="3814,5843 3737,5843 3737,6142 3637,6142 3637,5843 3561,5843 3561,5755 3814,5755 "
   id="polygon41"
   style="fill:#000000"
   transform="translate(-2796.6103,4698.0253)" />
  <g
   id="g3760"
   transform="translate(-2796.6103,4698.0253)"><path
     id="path43"
     d="m 3300,5755 c 0,4 0,197 0,201 v 48 c 0,82 -45,146 -149,146 -102,0 -149,-64 -149,-146 v -48 c 0,-4 0,-197 0,-201 h 100 v 254 c 0,27 17,53 49,53 33,0 49,-26 49,-53 v -254 z"
     class="fil4"
     inkscape:connector-curvature="0"
     style="fill:#000000" /></g>
 </g>
</svg>